<svg width="75" height="12" viewBox="0 0 75 12" fill="none" xmlns="http://www.w3.org/2000/svg">
<path fill-rule="evenodd" clip-rule="evenodd" d="M0.231026 11.5121V9.24211C1.5126 9.64875 2.64661 9.85208 3.63308 9.85208C4.99505 9.85208 5.67615 9.48913 5.67615 8.76377C5.67615 8.49336 5.57703 8.26611 5.37835 8.08211C5.17517 7.88694 4.6548 7.61638 3.81859 7.26974C2.31819 6.64777 1.33981 6.11736 0.884725 5.67864C0.294883 5.09955 0 4.36928 0 3.48679C0 2.35034 0.429711 1.48415 1.28853 0.888905C2.13785 0.298867 3.24379 0.00415039 4.60809 0.00415039C5.35978 0.00415039 6.44776 0.143622 7.87082 0.422943V2.60657C6.81196 2.18015 5.82909 1.9674 4.92101 1.9674C3.64229 1.9674 3.00296 2.32136 3.00296 3.03087C3.00296 3.29607 3.13172 3.51238 3.38962 3.68008C3.6041 3.81577 4.19507 4.10241 5.16124 4.5409C6.55241 5.16377 7.47854 5.70521 7.93999 6.16574C8.48754 6.712 8.76183 7.41887 8.76183 8.28528C8.76183 9.53064 8.22454 10.4806 7.15072 11.1352C6.28074 11.666 5.15264 11.9303 3.76708 11.9303C2.59698 11.9303 1.41805 11.7913 0.231026 11.5121Z" fill="#009999"/>
<path fill-rule="evenodd" clip-rule="evenodd" d="M10.5605 0.204102H13.7452V11.6982H10.5605V0.204102Z" fill="#009999"/>
<path fill-rule="evenodd" clip-rule="evenodd" d="M16.6655 11.6982V0.204102H24.8334V2.28305H19.7349V4.87844H24.1729V6.77474H19.7349V9.50237H24.9648V11.6982H16.6655Z" fill="#009999"/>
<path fill-rule="evenodd" clip-rule="evenodd" d="M27.0439 11.6982V0.204102H31.173L34.0416 7.54833L36.9822 0.204102H40.9042V11.6982H37.8847V3.5601L34.541 11.8149H32.567L29.2877 3.5601V11.6982H27.0439Z" fill="#009999"/>
<path fill-rule="evenodd" clip-rule="evenodd" d="M43.8252 11.6982V0.204102H51.9929V2.28305H46.8949V4.87844H51.3327V6.77474H46.8949V9.50237H52.1251V11.6982H43.8252Z" fill="#009999"/>
<path fill-rule="evenodd" clip-rule="evenodd" d="M54.2207 11.6982V0.204102H57.9117L61.8276 7.89852V0.204102H64.0708V11.6982H60.4846L56.4648 3.90025V11.6982H54.2207Z" fill="#009999"/>
<path fill-rule="evenodd" clip-rule="evenodd" d="M66.3315 11.5123V9.24231C67.6022 9.64895 68.736 9.85227 69.7341 9.85227C71.0962 9.85227 71.7765 9.48933 71.7765 8.76397C71.7765 8.49356 71.68 8.26631 71.488 8.08231C71.2838 7.88714 70.7612 7.61657 69.92 7.26993C68.4241 6.6531 67.4447 6.12291 66.9855 5.67884C66.3959 5.10488 66.1016 4.3719 66.1016 3.47914C66.1016 2.34759 66.5302 1.48427 67.3899 0.889027C68.238 0.29899 69.3452 0.00427246 70.7096 0.00427246C71.4768 0.00427246 72.4708 0.127065 73.6899 0.373782L73.9715 0.423065V2.60669C72.9125 2.18027 71.9268 1.96752 71.0138 1.96752C69.74 1.96752 69.1046 2.32148 69.1046 3.03099C69.1046 3.2962 69.2327 3.5125 69.4899 3.6802C69.6943 3.81069 70.2876 4.09748 71.27 4.54103C72.6506 5.1639 73.5748 5.70533 74.0403 6.16586C74.5886 6.71212 74.8623 7.41899 74.8623 8.2854C74.8623 9.53076 74.3281 10.4807 73.2598 11.1353C72.3847 11.6661 71.2537 11.9304 69.8684 11.9304C68.697 11.9305 67.5176 11.7915 66.3315 11.5123Z" fill="#009999"/>
</svg>
